<svg xmlns="http://www.w3.org/2000/svg" xmlns:xlink="http://www.w3.org/1999/xlink" viewBox="0 0 1832.89 726"><defs><style>.cls-1{fill:#fff;}.cls-2{fill:#ffbc00;}.cls-3{fill:url(#linear-gradient);}.cls-4{fill:url(#linear-gradient-2);}.cls-5{fill:url(#linear-gradient-3);}.cls-6{fill:url(#linear-gradient-4);}</style><linearGradient id="linear-gradient" x1="498.19" y1="363" x2="578.73" y2="363" gradientUnits="userSpaceOnUse"><stop offset="0" stop-color="red"/><stop offset="1" stop-color="#c40000"/></linearGradient><linearGradient id="linear-gradient-2" x1="370.28" y1="324.63" x2="498.19" y2="324.63" xlink:href="#linear-gradient"/><linearGradient id="linear-gradient-3" x1="242.36" y1="363.43" x2="416.77" y2="363.43" xlink:href="#linear-gradient"/><linearGradient id="linear-gradient-4" x1="202.09" y1="593.72" x2="202.09" y2="138.34" xlink:href="#linear-gradient"/></defs><g id="Layer_2" data-name="Layer 2"><g id="Layer_1-2" data-name="Layer 1"><rect class="cls-1" width="1832.89" height="726" rx="159.3"/><path class="cls-2" d="M912.75,248.06h-178v85.26H875.42v71.06H734.7v148.8H642.18V172.82H912.75Z"/><path class="cls-2" d="M1034.47,477.94h151.3v75.24H944.19V172.82h90.28Z"/><path class="cls-2" d="M1306.09,172.82V553.18h-88.88V172.82Z"/><path class="cls-2" d="M1657.42,172.82,1553.51,349.43l117.56,203.75H1567.94l-76.31-138-76.35,138h-84.44l117.85-202.75L1344.21,172.82H1448l61.61,115.51,64.73-115.51Z"/><rect class="cls-3" x="498.19" y="172.7" width="80.54" height="380.59"/><polygon class="cls-4" points="498.19 173.57 498.19 334.64 416.77 475.68 370.28 395.14 498.19 173.57"/><path class="cls-5" d="M353.44,527l-16.27-28.18L319,467.47l-12.9-22.36-17.52-30.34L270.05,382.6,254,354.77l-10-17.32-1.62-2.81V173.57L370.28,395.14l46.49,80.54-29.66,51.37L370.28,553.3"/><rect class="cls-6" x="161.82" y="172.7" width="80.54" height="380.59"/></g></g></svg>